<mxfile host="65bd71144e">
    <diagram id="YnS87yEpvr6c0MNXMADk" name="Page-1">
        <mxGraphModel dx="781" dy="1704" grid="1" gridSize="10" guides="1" tooltips="1" connect="1" arrows="1" fold="1" page="1" pageScale="1" pageWidth="850" pageHeight="1100" math="0" shadow="0">
            <root>
                <object label="" s="" id="0">
                    <mxCell/>
                </object>
                <mxCell id="1" parent="0"/>
                <mxCell id="2" value="elderlies" style="shape=table;startSize=30;container=1;collapsible=0;childLayout=tableLayout;fontStyle=1;align=center;fillColor=#0050ef;fontColor=#ffffff;strokeColor=#001DBC;" parent="1" vertex="1">
                    <mxGeometry x="590" y="340" width="210" height="253" as="geometry"/>
                </mxCell>
                <mxCell id="4MphJ5b8s6txSLYcJW80-159" value="" style="shape=tableRow;horizontal=0;startSize=0;swimlaneHead=0;swimlaneBody=0;top=0;left=0;bottom=0;right=0;collapsible=0;dropTarget=0;fillColor=none;points=[[0,0.5],[1,0.5]];portConstraint=eastwest;" parent="2" vertex="1">
                    <mxGeometry y="30" width="210" height="37" as="geometry"/>
                </mxCell>
                <mxCell id="4MphJ5b8s6txSLYcJW80-160" value="id" style="shape=partialRectangle;html=1;whiteSpace=wrap;connectable=0;fillColor=none;top=0;left=0;bottom=0;right=0;overflow=hidden;" parent="4MphJ5b8s6txSLYcJW80-159" vertex="1">
                    <mxGeometry width="75" height="37" as="geometry">
                        <mxRectangle width="75" height="37" as="alternateBounds"/>
                    </mxGeometry>
                </mxCell>
                <mxCell id="4MphJ5b8s6txSLYcJW80-161" value="uui" style="shape=partialRectangle;html=1;whiteSpace=wrap;connectable=0;fillColor=none;top=0;left=0;bottom=0;right=0;overflow=hidden;" parent="4MphJ5b8s6txSLYcJW80-159" vertex="1">
                    <mxGeometry x="75" width="65" height="37" as="geometry">
                        <mxRectangle width="65" height="37" as="alternateBounds"/>
                    </mxGeometry>
                </mxCell>
                <mxCell id="4MphJ5b8s6txSLYcJW80-162" value="" style="shape=partialRectangle;html=1;whiteSpace=wrap;connectable=0;fillColor=none;top=0;left=0;bottom=0;right=0;overflow=hidden;" parent="4MphJ5b8s6txSLYcJW80-159" vertex="1">
                    <mxGeometry x="140" width="70" height="37" as="geometry">
                        <mxRectangle width="70" height="37" as="alternateBounds"/>
                    </mxGeometry>
                </mxCell>
                <mxCell id="7" value="" style="shape=tableRow;horizontal=0;startSize=0;swimlaneHead=0;swimlaneBody=0;top=0;left=0;bottom=0;right=0;collapsible=0;dropTarget=0;fillColor=none;points=[[0,0.5],[1,0.5]];portConstraint=eastwest;" parent="2" vertex="1">
                    <mxGeometry y="67" width="210" height="38" as="geometry"/>
                </mxCell>
                <mxCell id="8" value="name" style="shape=partialRectangle;html=1;whiteSpace=wrap;connectable=0;fillColor=none;top=0;left=0;bottom=0;right=0;overflow=hidden;" parent="7" vertex="1">
                    <mxGeometry width="75" height="38" as="geometry">
                        <mxRectangle width="75" height="38" as="alternateBounds"/>
                    </mxGeometry>
                </mxCell>
                <mxCell id="9" value="string" style="shape=partialRectangle;html=1;whiteSpace=wrap;connectable=0;fillColor=none;top=0;left=0;bottom=0;right=0;overflow=hidden;" parent="7" vertex="1">
                    <mxGeometry x="75" width="65" height="38" as="geometry">
                        <mxRectangle width="65" height="38" as="alternateBounds"/>
                    </mxGeometry>
                </mxCell>
                <mxCell id="10" value="" style="shape=partialRectangle;html=1;whiteSpace=wrap;connectable=0;fillColor=none;top=0;left=0;bottom=0;right=0;overflow=hidden;" parent="7" vertex="1">
                    <mxGeometry x="140" width="70" height="38" as="geometry">
                        <mxRectangle width="70" height="38" as="alternateBounds"/>
                    </mxGeometry>
                </mxCell>
                <mxCell id="11" value="" style="shape=tableRow;horizontal=0;startSize=0;swimlaneHead=0;swimlaneBody=0;top=0;left=0;bottom=0;right=0;collapsible=0;dropTarget=0;fillColor=none;points=[[0,0.5],[1,0.5]];portConstraint=eastwest;" parent="2" vertex="1">
                    <mxGeometry y="105" width="210" height="37" as="geometry"/>
                </mxCell>
                <mxCell id="12" value="date" style="shape=partialRectangle;html=1;whiteSpace=wrap;connectable=0;fillColor=none;top=0;left=0;bottom=0;right=0;overflow=hidden;" parent="11" vertex="1">
                    <mxGeometry width="75" height="37" as="geometry">
                        <mxRectangle width="75" height="37" as="alternateBounds"/>
                    </mxGeometry>
                </mxCell>
                <mxCell id="13" value="datetime" style="shape=partialRectangle;html=1;whiteSpace=wrap;connectable=0;fillColor=none;top=0;left=0;bottom=0;right=0;overflow=hidden;" parent="11" vertex="1">
                    <mxGeometry x="75" width="65" height="37" as="geometry">
                        <mxRectangle width="65" height="37" as="alternateBounds"/>
                    </mxGeometry>
                </mxCell>
                <mxCell id="14" value="" style="shape=partialRectangle;html=1;whiteSpace=wrap;connectable=0;fillColor=none;top=0;left=0;bottom=0;right=0;overflow=hidden;" parent="11" vertex="1">
                    <mxGeometry x="140" width="70" height="37" as="geometry">
                        <mxRectangle width="70" height="37" as="alternateBounds"/>
                    </mxGeometry>
                </mxCell>
                <mxCell id="4MphJ5b8s6txSLYcJW80-93" style="shape=tableRow;horizontal=0;startSize=0;swimlaneHead=0;swimlaneBody=0;top=0;left=0;bottom=0;right=0;collapsible=0;dropTarget=0;fillColor=none;points=[[0,0.5],[1,0.5]];portConstraint=eastwest;" parent="2" vertex="1">
                    <mxGeometry y="142" width="210" height="36" as="geometry"/>
                </mxCell>
                <mxCell id="4MphJ5b8s6txSLYcJW80-94" value="height" style="shape=partialRectangle;html=1;whiteSpace=wrap;connectable=0;fillColor=none;top=0;left=0;bottom=0;right=0;overflow=hidden;" parent="4MphJ5b8s6txSLYcJW80-93" vertex="1">
                    <mxGeometry width="75" height="36" as="geometry">
                        <mxRectangle width="75" height="36" as="alternateBounds"/>
                    </mxGeometry>
                </mxCell>
                <mxCell id="4MphJ5b8s6txSLYcJW80-95" value="double" style="shape=partialRectangle;html=1;whiteSpace=wrap;connectable=0;fillColor=none;top=0;left=0;bottom=0;right=0;overflow=hidden;" parent="4MphJ5b8s6txSLYcJW80-93" vertex="1">
                    <mxGeometry x="75" width="65" height="36" as="geometry">
                        <mxRectangle width="65" height="36" as="alternateBounds"/>
                    </mxGeometry>
                </mxCell>
                <mxCell id="4MphJ5b8s6txSLYcJW80-96" style="shape=partialRectangle;html=1;whiteSpace=wrap;connectable=0;fillColor=none;top=0;left=0;bottom=0;right=0;overflow=hidden;" parent="4MphJ5b8s6txSLYcJW80-93" vertex="1">
                    <mxGeometry x="140" width="70" height="36" as="geometry">
                        <mxRectangle width="70" height="36" as="alternateBounds"/>
                    </mxGeometry>
                </mxCell>
                <mxCell id="4MphJ5b8s6txSLYcJW80-97" style="shape=tableRow;horizontal=0;startSize=0;swimlaneHead=0;swimlaneBody=0;top=0;left=0;bottom=0;right=0;collapsible=0;dropTarget=0;fillColor=none;points=[[0,0.5],[1,0.5]];portConstraint=eastwest;" parent="2" vertex="1">
                    <mxGeometry y="178" width="210" height="37" as="geometry"/>
                </mxCell>
                <mxCell id="4MphJ5b8s6txSLYcJW80-98" value="weight" style="shape=partialRectangle;html=1;whiteSpace=wrap;connectable=0;fillColor=none;top=0;left=0;bottom=0;right=0;overflow=hidden;" parent="4MphJ5b8s6txSLYcJW80-97" vertex="1">
                    <mxGeometry width="75" height="37" as="geometry">
                        <mxRectangle width="75" height="37" as="alternateBounds"/>
                    </mxGeometry>
                </mxCell>
                <mxCell id="4MphJ5b8s6txSLYcJW80-99" value="double" style="shape=partialRectangle;html=1;whiteSpace=wrap;connectable=0;fillColor=none;top=0;left=0;bottom=0;right=0;overflow=hidden;" parent="4MphJ5b8s6txSLYcJW80-97" vertex="1">
                    <mxGeometry x="75" width="65" height="37" as="geometry">
                        <mxRectangle width="65" height="37" as="alternateBounds"/>
                    </mxGeometry>
                </mxCell>
                <mxCell id="4MphJ5b8s6txSLYcJW80-100" style="shape=partialRectangle;html=1;whiteSpace=wrap;connectable=0;fillColor=none;top=0;left=0;bottom=0;right=0;overflow=hidden;" parent="4MphJ5b8s6txSLYcJW80-97" vertex="1">
                    <mxGeometry x="140" width="70" height="37" as="geometry">
                        <mxRectangle width="70" height="37" as="alternateBounds"/>
                    </mxGeometry>
                </mxCell>
                <mxCell id="4MphJ5b8s6txSLYcJW80-101" style="shape=tableRow;horizontal=0;startSize=0;swimlaneHead=0;swimlaneBody=0;top=0;left=0;bottom=0;right=0;collapsible=0;dropTarget=0;fillColor=none;points=[[0,0.5],[1,0.5]];portConstraint=eastwest;" parent="2" vertex="1">
                    <mxGeometry y="215" width="210" height="38" as="geometry"/>
                </mxCell>
                <mxCell id="4MphJ5b8s6txSLYcJW80-102" value="description" style="shape=partialRectangle;html=1;whiteSpace=wrap;connectable=0;fillColor=none;top=0;left=0;bottom=0;right=0;overflow=hidden;" parent="4MphJ5b8s6txSLYcJW80-101" vertex="1">
                    <mxGeometry width="75" height="38" as="geometry">
                        <mxRectangle width="75" height="38" as="alternateBounds"/>
                    </mxGeometry>
                </mxCell>
                <mxCell id="4MphJ5b8s6txSLYcJW80-103" value="text" style="shape=partialRectangle;html=1;whiteSpace=wrap;connectable=0;fillColor=none;top=0;left=0;bottom=0;right=0;overflow=hidden;" parent="4MphJ5b8s6txSLYcJW80-101" vertex="1">
                    <mxGeometry x="75" width="65" height="38" as="geometry">
                        <mxRectangle width="65" height="38" as="alternateBounds"/>
                    </mxGeometry>
                </mxCell>
                <mxCell id="4MphJ5b8s6txSLYcJW80-104" style="shape=partialRectangle;html=1;whiteSpace=wrap;connectable=0;fillColor=none;top=0;left=0;bottom=0;right=0;overflow=hidden;" parent="4MphJ5b8s6txSLYcJW80-101" vertex="1">
                    <mxGeometry x="140" width="70" height="38" as="geometry">
                        <mxRectangle width="70" height="38" as="alternateBounds"/>
                    </mxGeometry>
                </mxCell>
                <mxCell id="15" value="users" style="shape=table;startSize=40;container=1;collapsible=0;childLayout=tableLayout;fontStyle=3;align=center;labelBackgroundColor=none;fillColor=#0050ef;fontColor=#ffffff;strokeColor=#001DBC;" parent="1" vertex="1">
                    <mxGeometry x="10" y="260" width="220" height="236" as="geometry"/>
                </mxCell>
                <mxCell id="16" value="" style="shape=tableRow;horizontal=0;startSize=0;swimlaneHead=0;swimlaneBody=0;top=0;left=0;bottom=0;right=0;collapsible=0;dropTarget=0;fillColor=none;points=[[0,0.5],[1,0.5]];portConstraint=eastwest;" parent="15" vertex="1">
                    <mxGeometry y="40" width="220" height="33" as="geometry"/>
                </mxCell>
                <mxCell id="17" value="id" style="shape=partialRectangle;html=1;whiteSpace=wrap;connectable=0;fillColor=none;top=0;left=0;bottom=0;right=0;overflow=hidden;" parent="16" vertex="1">
                    <mxGeometry width="80" height="33" as="geometry">
                        <mxRectangle width="80" height="33" as="alternateBounds"/>
                    </mxGeometry>
                </mxCell>
                <mxCell id="18" value="uuid" style="shape=partialRectangle;html=1;whiteSpace=wrap;connectable=0;fillColor=none;top=0;left=0;bottom=0;right=0;overflow=hidden;" parent="16" vertex="1">
                    <mxGeometry x="80" width="70" height="33" as="geometry">
                        <mxRectangle width="70" height="33" as="alternateBounds"/>
                    </mxGeometry>
                </mxCell>
                <mxCell id="19" value="" style="shape=partialRectangle;html=1;whiteSpace=wrap;connectable=0;fillColor=none;top=0;left=0;bottom=0;right=0;overflow=hidden;" parent="16" vertex="1">
                    <mxGeometry x="150" width="70" height="33" as="geometry">
                        <mxRectangle width="70" height="33" as="alternateBounds"/>
                    </mxGeometry>
                </mxCell>
                <mxCell id="20" value="" style="shape=tableRow;horizontal=0;startSize=0;swimlaneHead=0;swimlaneBody=0;top=0;left=0;bottom=0;right=0;collapsible=0;dropTarget=0;fillColor=none;points=[[0,0.5],[1,0.5]];portConstraint=eastwest;" parent="15" vertex="1">
                    <mxGeometry y="73" width="220" height="31" as="geometry"/>
                </mxCell>
                <mxCell id="21" value="name" style="shape=partialRectangle;html=1;whiteSpace=wrap;connectable=0;fillColor=none;top=0;left=0;bottom=0;right=0;overflow=hidden;" parent="20" vertex="1">
                    <mxGeometry width="80" height="31" as="geometry">
                        <mxRectangle width="80" height="31" as="alternateBounds"/>
                    </mxGeometry>
                </mxCell>
                <mxCell id="22" value="string" style="shape=partialRectangle;html=1;whiteSpace=wrap;connectable=0;fillColor=none;top=0;left=0;bottom=0;right=0;overflow=hidden;" parent="20" vertex="1">
                    <mxGeometry x="80" width="70" height="31" as="geometry">
                        <mxRectangle width="70" height="31" as="alternateBounds"/>
                    </mxGeometry>
                </mxCell>
                <mxCell id="23" value="" style="shape=partialRectangle;html=1;whiteSpace=wrap;connectable=0;fillColor=none;top=0;left=0;bottom=0;right=0;overflow=hidden;" parent="20" vertex="1">
                    <mxGeometry x="150" width="70" height="31" as="geometry">
                        <mxRectangle width="70" height="31" as="alternateBounds"/>
                    </mxGeometry>
                </mxCell>
                <mxCell id="24" value="" style="shape=tableRow;horizontal=0;startSize=0;swimlaneHead=0;swimlaneBody=0;top=0;left=0;bottom=0;right=0;collapsible=0;dropTarget=0;fillColor=none;points=[[0,0.5],[1,0.5]];portConstraint=eastwest;" parent="15" vertex="1">
                    <mxGeometry y="104" width="220" height="33" as="geometry"/>
                </mxCell>
                <mxCell id="25" value="email" style="shape=partialRectangle;html=1;whiteSpace=wrap;connectable=0;fillColor=none;top=0;left=0;bottom=0;right=0;overflow=hidden;" parent="24" vertex="1">
                    <mxGeometry width="80" height="33" as="geometry">
                        <mxRectangle width="80" height="33" as="alternateBounds"/>
                    </mxGeometry>
                </mxCell>
                <mxCell id="26" value="string" style="shape=partialRectangle;html=1;whiteSpace=wrap;connectable=0;fillColor=none;top=0;left=0;bottom=0;right=0;overflow=hidden;" parent="24" vertex="1">
                    <mxGeometry x="80" width="70" height="33" as="geometry">
                        <mxRectangle width="70" height="33" as="alternateBounds"/>
                    </mxGeometry>
                </mxCell>
                <mxCell id="27" value="" style="shape=partialRectangle;html=1;whiteSpace=wrap;connectable=0;fillColor=none;top=0;left=0;bottom=0;right=0;overflow=hidden;" parent="24" vertex="1">
                    <mxGeometry x="150" width="70" height="33" as="geometry">
                        <mxRectangle width="70" height="33" as="alternateBounds"/>
                    </mxGeometry>
                </mxCell>
                <mxCell id="4MphJ5b8s6txSLYcJW80-67" style="shape=tableRow;horizontal=0;startSize=0;swimlaneHead=0;swimlaneBody=0;top=0;left=0;bottom=0;right=0;collapsible=0;dropTarget=0;fillColor=none;points=[[0,0.5],[1,0.5]];portConstraint=eastwest;" parent="15" vertex="1">
                    <mxGeometry y="137" width="220" height="33" as="geometry"/>
                </mxCell>
                <mxCell id="4MphJ5b8s6txSLYcJW80-68" value="relative_tie" style="shape=partialRectangle;html=1;whiteSpace=wrap;connectable=0;fillColor=none;top=0;left=0;bottom=0;right=0;overflow=hidden;" parent="4MphJ5b8s6txSLYcJW80-67" vertex="1">
                    <mxGeometry width="80" height="33" as="geometry">
                        <mxRectangle width="80" height="33" as="alternateBounds"/>
                    </mxGeometry>
                </mxCell>
                <mxCell id="4MphJ5b8s6txSLYcJW80-69" value="string" style="shape=partialRectangle;html=1;whiteSpace=wrap;connectable=0;fillColor=none;top=0;left=0;bottom=0;right=0;overflow=hidden;" parent="4MphJ5b8s6txSLYcJW80-67" vertex="1">
                    <mxGeometry x="80" width="70" height="33" as="geometry">
                        <mxRectangle width="70" height="33" as="alternateBounds"/>
                    </mxGeometry>
                </mxCell>
                <mxCell id="4MphJ5b8s6txSLYcJW80-70" style="shape=partialRectangle;html=1;whiteSpace=wrap;connectable=0;fillColor=none;top=0;left=0;bottom=0;right=0;overflow=hidden;" parent="4MphJ5b8s6txSLYcJW80-67" vertex="1">
                    <mxGeometry x="150" width="70" height="33" as="geometry">
                        <mxRectangle width="70" height="33" as="alternateBounds"/>
                    </mxGeometry>
                </mxCell>
                <mxCell id="4MphJ5b8s6txSLYcJW80-71" style="shape=tableRow;horizontal=0;startSize=0;swimlaneHead=0;swimlaneBody=0;top=0;left=0;bottom=0;right=0;collapsible=0;dropTarget=0;fillColor=none;points=[[0,0.5],[1,0.5]];portConstraint=eastwest;" parent="15" vertex="1">
                    <mxGeometry y="170" width="220" height="33" as="geometry"/>
                </mxCell>
                <mxCell id="4MphJ5b8s6txSLYcJW80-72" value="password" style="shape=partialRectangle;html=1;whiteSpace=wrap;connectable=0;fillColor=none;top=0;left=0;bottom=0;right=0;overflow=hidden;" parent="4MphJ5b8s6txSLYcJW80-71" vertex="1">
                    <mxGeometry width="80" height="33" as="geometry">
                        <mxRectangle width="80" height="33" as="alternateBounds"/>
                    </mxGeometry>
                </mxCell>
                <mxCell id="4MphJ5b8s6txSLYcJW80-73" value="string" style="shape=partialRectangle;html=1;whiteSpace=wrap;connectable=0;fillColor=none;top=0;left=0;bottom=0;right=0;overflow=hidden;" parent="4MphJ5b8s6txSLYcJW80-71" vertex="1">
                    <mxGeometry x="80" width="70" height="33" as="geometry">
                        <mxRectangle width="70" height="33" as="alternateBounds"/>
                    </mxGeometry>
                </mxCell>
                <mxCell id="4MphJ5b8s6txSLYcJW80-74" style="shape=partialRectangle;html=1;whiteSpace=wrap;connectable=0;fillColor=none;top=0;left=0;bottom=0;right=0;overflow=hidden;" parent="4MphJ5b8s6txSLYcJW80-71" vertex="1">
                    <mxGeometry x="150" width="70" height="33" as="geometry">
                        <mxRectangle width="70" height="33" as="alternateBounds"/>
                    </mxGeometry>
                </mxCell>
                <mxCell id="4MphJ5b8s6txSLYcJW80-75" style="shape=tableRow;horizontal=0;startSize=0;swimlaneHead=0;swimlaneBody=0;top=0;left=0;bottom=0;right=0;collapsible=0;dropTarget=0;fillColor=none;points=[[0,0.5],[1,0.5]];portConstraint=eastwest;" parent="15" vertex="1">
                    <mxGeometry y="203" width="220" height="33" as="geometry"/>
                </mxCell>
                <mxCell id="4MphJ5b8s6txSLYcJW80-76" value="bracelet_id" style="shape=partialRectangle;html=1;whiteSpace=wrap;connectable=0;fillColor=none;top=0;left=0;bottom=0;right=0;overflow=hidden;" parent="4MphJ5b8s6txSLYcJW80-75" vertex="1">
                    <mxGeometry width="80" height="33" as="geometry">
                        <mxRectangle width="80" height="33" as="alternateBounds"/>
                    </mxGeometry>
                </mxCell>
                <mxCell id="4MphJ5b8s6txSLYcJW80-77" value="int" style="shape=partialRectangle;html=1;whiteSpace=wrap;connectable=0;fillColor=none;top=0;left=0;bottom=0;right=0;overflow=hidden;" parent="4MphJ5b8s6txSLYcJW80-75" vertex="1">
                    <mxGeometry x="80" width="70" height="33" as="geometry">
                        <mxRectangle width="70" height="33" as="alternateBounds"/>
                    </mxGeometry>
                </mxCell>
                <mxCell id="4MphJ5b8s6txSLYcJW80-78" style="shape=partialRectangle;html=1;whiteSpace=wrap;connectable=0;fillColor=none;top=0;left=0;bottom=0;right=0;overflow=hidden;" parent="4MphJ5b8s6txSLYcJW80-75" vertex="1">
                    <mxGeometry x="150" width="70" height="33" as="geometry">
                        <mxRectangle width="70" height="33" as="alternateBounds"/>
                    </mxGeometry>
                </mxCell>
                <mxCell id="4MphJ5b8s6txSLYcJW80-79" value="bracelets" style="shape=table;startSize=30;container=1;collapsible=0;childLayout=tableLayout;fontStyle=1;align=center;fillColor=#0066CC;" parent="1" vertex="1">
                    <mxGeometry x="280" y="90" width="260" height="350" as="geometry"/>
                </mxCell>
                <mxCell id="4MphJ5b8s6txSLYcJW80-80" value="" style="shape=tableRow;horizontal=0;startSize=0;swimlaneHead=0;swimlaneBody=0;top=0;left=0;bottom=0;right=0;collapsible=0;dropTarget=0;fillColor=none;points=[[0,0.5],[1,0.5]];portConstraint=eastwest;" parent="4MphJ5b8s6txSLYcJW80-79" vertex="1">
                    <mxGeometry y="30" width="260" height="40" as="geometry"/>
                </mxCell>
                <mxCell id="4MphJ5b8s6txSLYcJW80-81" value="id" style="shape=partialRectangle;html=1;whiteSpace=wrap;connectable=0;fillColor=none;top=0;left=0;bottom=0;right=0;overflow=hidden;" parent="4MphJ5b8s6txSLYcJW80-80" vertex="1">
                    <mxGeometry width="115" height="40" as="geometry">
                        <mxRectangle width="115" height="40" as="alternateBounds"/>
                    </mxGeometry>
                </mxCell>
                <mxCell id="4MphJ5b8s6txSLYcJW80-82" value="uui" style="shape=partialRectangle;html=1;whiteSpace=wrap;connectable=0;fillColor=none;top=0;left=0;bottom=0;right=0;overflow=hidden;" parent="4MphJ5b8s6txSLYcJW80-80" vertex="1">
                    <mxGeometry x="115" width="75" height="40" as="geometry">
                        <mxRectangle width="75" height="40" as="alternateBounds"/>
                    </mxGeometry>
                </mxCell>
                <mxCell id="4MphJ5b8s6txSLYcJW80-83" value="" style="shape=partialRectangle;html=1;whiteSpace=wrap;connectable=0;fillColor=none;top=0;left=0;bottom=0;right=0;overflow=hidden;" parent="4MphJ5b8s6txSLYcJW80-80" vertex="1">
                    <mxGeometry x="190" width="70" height="40" as="geometry">
                        <mxRectangle width="70" height="40" as="alternateBounds"/>
                    </mxGeometry>
                </mxCell>
                <mxCell id="4MphJ5b8s6txSLYcJW80-84" value="" style="shape=tableRow;horizontal=0;startSize=0;swimlaneHead=0;swimlaneBody=0;top=0;left=0;bottom=0;right=0;collapsible=0;dropTarget=0;fillColor=none;points=[[0,0.5],[1,0.5]];portConstraint=eastwest;" parent="4MphJ5b8s6txSLYcJW80-79" vertex="1">
                    <mxGeometry y="70" width="260" height="40" as="geometry"/>
                </mxCell>
                <mxCell id="4MphJ5b8s6txSLYcJW80-85" value="heart_rate" style="shape=partialRectangle;html=1;whiteSpace=wrap;connectable=0;fillColor=none;top=0;left=0;bottom=0;right=0;overflow=hidden;" parent="4MphJ5b8s6txSLYcJW80-84" vertex="1">
                    <mxGeometry width="115" height="40" as="geometry">
                        <mxRectangle width="115" height="40" as="alternateBounds"/>
                    </mxGeometry>
                </mxCell>
                <mxCell id="4MphJ5b8s6txSLYcJW80-86" value="double" style="shape=partialRectangle;html=1;whiteSpace=wrap;connectable=0;fillColor=none;top=0;left=0;bottom=0;right=0;overflow=hidden;" parent="4MphJ5b8s6txSLYcJW80-84" vertex="1">
                    <mxGeometry x="115" width="75" height="40" as="geometry">
                        <mxRectangle width="75" height="40" as="alternateBounds"/>
                    </mxGeometry>
                </mxCell>
                <mxCell id="4MphJ5b8s6txSLYcJW80-87" value="" style="shape=partialRectangle;html=1;whiteSpace=wrap;connectable=0;fillColor=none;top=0;left=0;bottom=0;right=0;overflow=hidden;" parent="4MphJ5b8s6txSLYcJW80-84" vertex="1">
                    <mxGeometry x="190" width="70" height="40" as="geometry">
                        <mxRectangle width="70" height="40" as="alternateBounds"/>
                    </mxGeometry>
                </mxCell>
                <mxCell id="4MphJ5b8s6txSLYcJW80-88" value="" style="shape=tableRow;horizontal=0;startSize=0;swimlaneHead=0;swimlaneBody=0;top=0;left=0;bottom=0;right=0;collapsible=0;dropTarget=0;fillColor=none;points=[[0,0.5],[1,0.5]];portConstraint=eastwest;" parent="4MphJ5b8s6txSLYcJW80-79" vertex="1">
                    <mxGeometry y="110" width="260" height="40" as="geometry"/>
                </mxCell>
                <mxCell id="4MphJ5b8s6txSLYcJW80-89" value="blood_oxygen" style="shape=partialRectangle;html=1;whiteSpace=wrap;connectable=0;fillColor=none;top=0;left=0;bottom=0;right=0;overflow=hidden;" parent="4MphJ5b8s6txSLYcJW80-88" vertex="1">
                    <mxGeometry width="115" height="40" as="geometry">
                        <mxRectangle width="115" height="40" as="alternateBounds"/>
                    </mxGeometry>
                </mxCell>
                <mxCell id="4MphJ5b8s6txSLYcJW80-90" value="double" style="shape=partialRectangle;html=1;whiteSpace=wrap;connectable=0;fillColor=none;top=0;left=0;bottom=0;right=0;overflow=hidden;" parent="4MphJ5b8s6txSLYcJW80-88" vertex="1">
                    <mxGeometry x="115" width="75" height="40" as="geometry">
                        <mxRectangle width="75" height="40" as="alternateBounds"/>
                    </mxGeometry>
                </mxCell>
                <mxCell id="4MphJ5b8s6txSLYcJW80-91" value="" style="shape=partialRectangle;html=1;whiteSpace=wrap;connectable=0;fillColor=none;top=0;left=0;bottom=0;right=0;overflow=hidden;" parent="4MphJ5b8s6txSLYcJW80-88" vertex="1">
                    <mxGeometry x="190" width="70" height="40" as="geometry">
                        <mxRectangle width="70" height="40" as="alternateBounds"/>
                    </mxGeometry>
                </mxCell>
                <mxCell id="4MphJ5b8s6txSLYcJW80-123" style="shape=tableRow;horizontal=0;startSize=0;swimlaneHead=0;swimlaneBody=0;top=0;left=0;bottom=0;right=0;collapsible=0;dropTarget=0;fillColor=none;points=[[0,0.5],[1,0.5]];portConstraint=eastwest;" parent="4MphJ5b8s6txSLYcJW80-79" vertex="1">
                    <mxGeometry y="150" width="260" height="40" as="geometry"/>
                </mxCell>
                <mxCell id="4MphJ5b8s6txSLYcJW80-124" value="temperature" style="shape=partialRectangle;html=1;whiteSpace=wrap;connectable=0;fillColor=none;top=0;left=0;bottom=0;right=0;overflow=hidden;" parent="4MphJ5b8s6txSLYcJW80-123" vertex="1">
                    <mxGeometry width="115" height="40" as="geometry">
                        <mxRectangle width="115" height="40" as="alternateBounds"/>
                    </mxGeometry>
                </mxCell>
                <mxCell id="4MphJ5b8s6txSLYcJW80-125" value="double" style="shape=partialRectangle;html=1;whiteSpace=wrap;connectable=0;fillColor=none;top=0;left=0;bottom=0;right=0;overflow=hidden;" parent="4MphJ5b8s6txSLYcJW80-123" vertex="1">
                    <mxGeometry x="115" width="75" height="40" as="geometry">
                        <mxRectangle width="75" height="40" as="alternateBounds"/>
                    </mxGeometry>
                </mxCell>
                <mxCell id="4MphJ5b8s6txSLYcJW80-126" style="shape=partialRectangle;html=1;whiteSpace=wrap;connectable=0;fillColor=none;top=0;left=0;bottom=0;right=0;overflow=hidden;" parent="4MphJ5b8s6txSLYcJW80-123" vertex="1">
                    <mxGeometry x="190" width="70" height="40" as="geometry">
                        <mxRectangle width="70" height="40" as="alternateBounds"/>
                    </mxGeometry>
                </mxCell>
                <mxCell id="4MphJ5b8s6txSLYcJW80-127" style="shape=tableRow;horizontal=0;startSize=0;swimlaneHead=0;swimlaneBody=0;top=0;left=0;bottom=0;right=0;collapsible=0;dropTarget=0;fillColor=none;points=[[0,0.5],[1,0.5]];portConstraint=eastwest;" parent="4MphJ5b8s6txSLYcJW80-79" vertex="1">
                    <mxGeometry y="190" width="260" height="40" as="geometry"/>
                </mxCell>
                <mxCell id="4MphJ5b8s6txSLYcJW80-128" value="pressure" style="shape=partialRectangle;html=1;whiteSpace=wrap;connectable=0;fillColor=none;top=0;left=0;bottom=0;right=0;overflow=hidden;" parent="4MphJ5b8s6txSLYcJW80-127" vertex="1">
                    <mxGeometry width="115" height="40" as="geometry">
                        <mxRectangle width="115" height="40" as="alternateBounds"/>
                    </mxGeometry>
                </mxCell>
                <mxCell id="4MphJ5b8s6txSLYcJW80-129" value="double" style="shape=partialRectangle;html=1;whiteSpace=wrap;connectable=0;fillColor=none;top=0;left=0;bottom=0;right=0;overflow=hidden;" parent="4MphJ5b8s6txSLYcJW80-127" vertex="1">
                    <mxGeometry x="115" width="75" height="40" as="geometry">
                        <mxRectangle width="75" height="40" as="alternateBounds"/>
                    </mxGeometry>
                </mxCell>
                <mxCell id="4MphJ5b8s6txSLYcJW80-130" style="shape=partialRectangle;html=1;whiteSpace=wrap;connectable=0;fillColor=none;top=0;left=0;bottom=0;right=0;overflow=hidden;" parent="4MphJ5b8s6txSLYcJW80-127" vertex="1">
                    <mxGeometry x="190" width="70" height="40" as="geometry">
                        <mxRectangle width="70" height="40" as="alternateBounds"/>
                    </mxGeometry>
                </mxCell>
                <mxCell id="4MphJ5b8s6txSLYcJW80-155" style="shape=tableRow;horizontal=0;startSize=0;swimlaneHead=0;swimlaneBody=0;top=0;left=0;bottom=0;right=0;collapsible=0;dropTarget=0;fillColor=none;points=[[0,0.5],[1,0.5]];portConstraint=eastwest;" parent="4MphJ5b8s6txSLYcJW80-79" vertex="1">
                    <mxGeometry y="230" width="260" height="40" as="geometry"/>
                </mxCell>
                <mxCell id="4MphJ5b8s6txSLYcJW80-156" value="elderly_id" style="shape=partialRectangle;html=1;whiteSpace=wrap;connectable=0;fillColor=none;top=0;left=0;bottom=0;right=0;overflow=hidden;" parent="4MphJ5b8s6txSLYcJW80-155" vertex="1">
                    <mxGeometry width="115" height="40" as="geometry">
                        <mxRectangle width="115" height="40" as="alternateBounds"/>
                    </mxGeometry>
                </mxCell>
                <mxCell id="4MphJ5b8s6txSLYcJW80-157" value="uuid" style="shape=partialRectangle;html=1;whiteSpace=wrap;connectable=0;fillColor=none;top=0;left=0;bottom=0;right=0;overflow=hidden;" parent="4MphJ5b8s6txSLYcJW80-155" vertex="1">
                    <mxGeometry x="115" width="75" height="40" as="geometry">
                        <mxRectangle width="75" height="40" as="alternateBounds"/>
                    </mxGeometry>
                </mxCell>
                <mxCell id="4MphJ5b8s6txSLYcJW80-158" style="shape=partialRectangle;html=1;whiteSpace=wrap;connectable=0;fillColor=none;top=0;left=0;bottom=0;right=0;overflow=hidden;" parent="4MphJ5b8s6txSLYcJW80-155" vertex="1">
                    <mxGeometry x="190" width="70" height="40" as="geometry">
                        <mxRectangle width="70" height="40" as="alternateBounds"/>
                    </mxGeometry>
                </mxCell>
                <mxCell id="28" style="shape=tableRow;horizontal=0;startSize=0;swimlaneHead=0;swimlaneBody=0;top=0;left=0;bottom=0;right=0;collapsible=0;dropTarget=0;fillColor=none;points=[[0,0.5],[1,0.5]];portConstraint=eastwest;" vertex="1" parent="4MphJ5b8s6txSLYcJW80-79">
                    <mxGeometry y="270" width="260" height="40" as="geometry"/>
                </mxCell>
                <mxCell id="29" value="localizations" style="shape=partialRectangle;html=1;whiteSpace=wrap;connectable=0;fillColor=none;top=0;left=0;bottom=0;right=0;overflow=hidden;" vertex="1" parent="28">
                    <mxGeometry width="115" height="40" as="geometry">
                        <mxRectangle width="115" height="40" as="alternateBounds"/>
                    </mxGeometry>
                </mxCell>
                <mxCell id="30" value="string" style="shape=partialRectangle;html=1;whiteSpace=wrap;connectable=0;fillColor=none;top=0;left=0;bottom=0;right=0;overflow=hidden;" vertex="1" parent="28">
                    <mxGeometry x="115" width="75" height="40" as="geometry">
                        <mxRectangle width="75" height="40" as="alternateBounds"/>
                    </mxGeometry>
                </mxCell>
                <mxCell id="31" style="shape=partialRectangle;html=1;whiteSpace=wrap;connectable=0;fillColor=none;top=0;left=0;bottom=0;right=0;overflow=hidden;" vertex="1" parent="28">
                    <mxGeometry x="190" width="70" height="40" as="geometry">
                        <mxRectangle width="70" height="40" as="alternateBounds"/>
                    </mxGeometry>
                </mxCell>
                <mxCell id="32" style="shape=tableRow;horizontal=0;startSize=0;swimlaneHead=0;swimlaneBody=0;top=0;left=0;bottom=0;right=0;collapsible=0;dropTarget=0;fillColor=none;points=[[0,0.5],[1,0.5]];portConstraint=eastwest;" vertex="1" parent="4MphJ5b8s6txSLYcJW80-79">
                    <mxGeometry y="310" width="260" height="40" as="geometry"/>
                </mxCell>
                <mxCell id="33" value="Fall" style="shape=partialRectangle;html=1;whiteSpace=wrap;connectable=0;fillColor=none;top=0;left=0;bottom=0;right=0;overflow=hidden;" vertex="1" parent="32">
                    <mxGeometry width="115" height="40" as="geometry">
                        <mxRectangle width="115" height="40" as="alternateBounds"/>
                    </mxGeometry>
                </mxCell>
                <mxCell id="34" value="string" style="shape=partialRectangle;html=1;whiteSpace=wrap;connectable=0;fillColor=none;top=0;left=0;bottom=0;right=0;overflow=hidden;" vertex="1" parent="32">
                    <mxGeometry x="115" width="75" height="40" as="geometry">
                        <mxRectangle width="75" height="40" as="alternateBounds"/>
                    </mxGeometry>
                </mxCell>
                <mxCell id="35" style="shape=partialRectangle;html=1;whiteSpace=wrap;connectable=0;fillColor=none;top=0;left=0;bottom=0;right=0;overflow=hidden;" vertex="1" parent="32">
                    <mxGeometry x="190" width="70" height="40" as="geometry">
                        <mxRectangle width="70" height="40" as="alternateBounds"/>
                    </mxGeometry>
                </mxCell>
                <mxCell id="4MphJ5b8s6txSLYcJW80-110" value="health_state" style="shape=table;startSize=30;container=1;collapsible=0;childLayout=tableLayout;fontStyle=1;align=center;fillColor=#7ad123;fontColor=#ffffff;strokeColor=#2D7600;" parent="1" vertex="1">
                    <mxGeometry x="320" y="496" width="180" height="190" as="geometry"/>
                </mxCell>
                <mxCell id="4MphJ5b8s6txSLYcJW80-111" value="" style="shape=tableRow;horizontal=0;startSize=0;swimlaneHead=0;swimlaneBody=0;top=0;left=0;bottom=0;right=0;collapsible=0;dropTarget=0;fillColor=none;points=[[0,0.5],[1,0.5]];portConstraint=eastwest;" parent="4MphJ5b8s6txSLYcJW80-110" vertex="1">
                    <mxGeometry y="30" width="180" height="40" as="geometry"/>
                </mxCell>
                <mxCell id="4MphJ5b8s6txSLYcJW80-112" value="id" style="shape=partialRectangle;html=1;whiteSpace=wrap;connectable=0;fillColor=none;top=0;left=0;bottom=0;right=0;overflow=hidden;" parent="4MphJ5b8s6txSLYcJW80-111" vertex="1">
                    <mxGeometry width="70" height="40" as="geometry">
                        <mxRectangle width="70" height="40" as="alternateBounds"/>
                    </mxGeometry>
                </mxCell>
                <mxCell id="4MphJ5b8s6txSLYcJW80-113" value="uuid" style="shape=partialRectangle;html=1;whiteSpace=wrap;connectable=0;fillColor=none;top=0;left=0;bottom=0;right=0;overflow=hidden;" parent="4MphJ5b8s6txSLYcJW80-111" vertex="1">
                    <mxGeometry x="70" width="50" height="40" as="geometry">
                        <mxRectangle width="50" height="40" as="alternateBounds"/>
                    </mxGeometry>
                </mxCell>
                <mxCell id="4MphJ5b8s6txSLYcJW80-114" value="" style="shape=partialRectangle;html=1;whiteSpace=wrap;connectable=0;fillColor=none;top=0;left=0;bottom=0;right=0;overflow=hidden;" parent="4MphJ5b8s6txSLYcJW80-111" vertex="1">
                    <mxGeometry x="120" width="60" height="40" as="geometry">
                        <mxRectangle width="60" height="40" as="alternateBounds"/>
                    </mxGeometry>
                </mxCell>
                <mxCell id="4MphJ5b8s6txSLYcJW80-115" value="" style="shape=tableRow;horizontal=0;startSize=0;swimlaneHead=0;swimlaneBody=0;top=0;left=0;bottom=0;right=0;collapsible=0;dropTarget=0;fillColor=none;points=[[0,0.5],[1,0.5]];portConstraint=eastwest;" parent="4MphJ5b8s6txSLYcJW80-110" vertex="1">
                    <mxGeometry y="70" width="180" height="40" as="geometry"/>
                </mxCell>
                <mxCell id="4MphJ5b8s6txSLYcJW80-116" value="type" style="shape=partialRectangle;html=1;whiteSpace=wrap;connectable=0;fillColor=none;top=0;left=0;bottom=0;right=0;overflow=hidden;" parent="4MphJ5b8s6txSLYcJW80-115" vertex="1">
                    <mxGeometry width="70" height="40" as="geometry">
                        <mxRectangle width="70" height="40" as="alternateBounds"/>
                    </mxGeometry>
                </mxCell>
                <mxCell id="4MphJ5b8s6txSLYcJW80-117" value="int" style="shape=partialRectangle;html=1;whiteSpace=wrap;connectable=0;fillColor=none;top=0;left=0;bottom=0;right=0;overflow=hidden;" parent="4MphJ5b8s6txSLYcJW80-115" vertex="1">
                    <mxGeometry x="70" width="50" height="40" as="geometry">
                        <mxRectangle width="50" height="40" as="alternateBounds"/>
                    </mxGeometry>
                </mxCell>
                <mxCell id="4MphJ5b8s6txSLYcJW80-118" value="" style="shape=partialRectangle;html=1;whiteSpace=wrap;connectable=0;fillColor=none;top=0;left=0;bottom=0;right=0;overflow=hidden;" parent="4MphJ5b8s6txSLYcJW80-115" vertex="1">
                    <mxGeometry x="120" width="60" height="40" as="geometry">
                        <mxRectangle width="60" height="40" as="alternateBounds"/>
                    </mxGeometry>
                </mxCell>
                <mxCell id="4MphJ5b8s6txSLYcJW80-119" value="" style="shape=tableRow;horizontal=0;startSize=0;swimlaneHead=0;swimlaneBody=0;top=0;left=0;bottom=0;right=0;collapsible=0;dropTarget=0;fillColor=none;points=[[0,0.5],[1,0.5]];portConstraint=eastwest;" parent="4MphJ5b8s6txSLYcJW80-110" vertex="1">
                    <mxGeometry y="110" width="180" height="40" as="geometry"/>
                </mxCell>
                <mxCell id="4MphJ5b8s6txSLYcJW80-120" value="level" style="shape=partialRectangle;html=1;whiteSpace=wrap;connectable=0;fillColor=none;top=0;left=0;bottom=0;right=0;overflow=hidden;" parent="4MphJ5b8s6txSLYcJW80-119" vertex="1">
                    <mxGeometry width="70" height="40" as="geometry">
                        <mxRectangle width="70" height="40" as="alternateBounds"/>
                    </mxGeometry>
                </mxCell>
                <mxCell id="4MphJ5b8s6txSLYcJW80-121" value="int" style="shape=partialRectangle;html=1;whiteSpace=wrap;connectable=0;fillColor=none;top=0;left=0;bottom=0;right=0;overflow=hidden;" parent="4MphJ5b8s6txSLYcJW80-119" vertex="1">
                    <mxGeometry x="70" width="50" height="40" as="geometry">
                        <mxRectangle width="50" height="40" as="alternateBounds"/>
                    </mxGeometry>
                </mxCell>
                <mxCell id="4MphJ5b8s6txSLYcJW80-122" value="" style="shape=partialRectangle;html=1;whiteSpace=wrap;connectable=0;fillColor=none;top=0;left=0;bottom=0;right=0;overflow=hidden;" parent="4MphJ5b8s6txSLYcJW80-119" vertex="1">
                    <mxGeometry x="120" width="60" height="40" as="geometry">
                        <mxRectangle width="60" height="40" as="alternateBounds"/>
                    </mxGeometry>
                </mxCell>
                <mxCell id="4MphJ5b8s6txSLYcJW80-131" style="shape=tableRow;horizontal=0;startSize=0;swimlaneHead=0;swimlaneBody=0;top=0;left=0;bottom=0;right=0;collapsible=0;dropTarget=0;fillColor=none;points=[[0,0.5],[1,0.5]];portConstraint=eastwest;" parent="4MphJ5b8s6txSLYcJW80-110" vertex="1">
                    <mxGeometry y="150" width="180" height="40" as="geometry"/>
                </mxCell>
                <mxCell id="4MphJ5b8s6txSLYcJW80-132" value="bracelet_id" style="shape=partialRectangle;html=1;whiteSpace=wrap;connectable=0;fillColor=none;top=0;left=0;bottom=0;right=0;overflow=hidden;" parent="4MphJ5b8s6txSLYcJW80-131" vertex="1">
                    <mxGeometry width="70" height="40" as="geometry">
                        <mxRectangle width="70" height="40" as="alternateBounds"/>
                    </mxGeometry>
                </mxCell>
                <mxCell id="4MphJ5b8s6txSLYcJW80-133" value="uui" style="shape=partialRectangle;html=1;whiteSpace=wrap;connectable=0;fillColor=none;top=0;left=0;bottom=0;right=0;overflow=hidden;" parent="4MphJ5b8s6txSLYcJW80-131" vertex="1">
                    <mxGeometry x="70" width="50" height="40" as="geometry">
                        <mxRectangle width="50" height="40" as="alternateBounds"/>
                    </mxGeometry>
                </mxCell>
                <mxCell id="4MphJ5b8s6txSLYcJW80-134" style="shape=partialRectangle;html=1;whiteSpace=wrap;connectable=0;fillColor=none;top=0;left=0;bottom=0;right=0;overflow=hidden;" parent="4MphJ5b8s6txSLYcJW80-131" vertex="1">
                    <mxGeometry x="120" width="60" height="40" as="geometry">
                        <mxRectangle width="60" height="40" as="alternateBounds"/>
                    </mxGeometry>
                </mxCell>
                <mxCell id="4MphJ5b8s6txSLYcJW80-167" value="MANY-TO-ONE" style="html=1;verticalAlign=bottom;startArrow=circle;startFill=1;endArrow=open;startSize=6;endSize=8;" parent="1" edge="1">
                    <mxGeometry width="80" relative="1" as="geometry">
                        <mxPoint x="270" y="150" as="sourcePoint"/>
                        <mxPoint x="140" y="250" as="targetPoint"/>
                        <Array as="points">
                            <mxPoint x="140" y="150"/>
                        </Array>
                    </mxGeometry>
                </mxCell>
                <mxCell id="4MphJ5b8s6txSLYcJW80-169" value="ONE-TO-ONE" style="html=1;verticalAlign=bottom;startArrow=circle;startFill=1;endArrow=open;startSize=6;endSize=8;" parent="1" edge="1">
                    <mxGeometry width="80" relative="1" as="geometry">
                        <mxPoint x="550" y="180" as="sourcePoint"/>
                        <mxPoint x="670" y="310" as="targetPoint"/>
                        <Array as="points">
                            <mxPoint x="670" y="180"/>
                        </Array>
                    </mxGeometry>
                </mxCell>
                <mxCell id="4MphJ5b8s6txSLYcJW80-170" value="ONE BRACELET BELONGS TO ONE ELDERLY" style="text;html=1;strokeColor=none;fillColor=none;align=center;verticalAlign=middle;whiteSpace=wrap;rounded=0;labelBackgroundColor=none;" parent="1" vertex="1">
                    <mxGeometry x="640" y="110" width="60" height="30" as="geometry"/>
                </mxCell>
                <mxCell id="4MphJ5b8s6txSLYcJW80-175" value="ONE BRACELET&amp;nbsp;&lt;br&gt;HAS MANY USERS" style="text;html=1;strokeColor=none;fillColor=none;align=center;verticalAlign=middle;whiteSpace=wrap;rounded=0;labelBackgroundColor=none;" parent="1" vertex="1">
                    <mxGeometry x="119" y="80" width="60" height="30" as="geometry"/>
                </mxCell>
                <mxCell id="4MphJ5b8s6txSLYcJW80-193" value="&lt;h1 style=&quot;&quot;&gt;&lt;i style=&quot;&quot;&gt;&lt;font style=&quot;font-size: 24px;&quot; color=&quot;#2ca2dd&quot;&gt;Elderly Health Management System Database Diagram&lt;/font&gt;&lt;/i&gt;&lt;/h1&gt;&lt;p style=&quot;font-size: 24px;&quot;&gt;Lets take care of Our Elderlies in order to protect our ancestors&lt;/p&gt;" style="text;html=1;strokeColor=none;fillColor=none;spacing=5;spacingTop=-20;whiteSpace=wrap;overflow=hidden;rounded=0;labelBackgroundColor=none;align=center;" parent="1" vertex="1">
                    <mxGeometry x="70" y="-60" width="720" height="120" as="geometry"/>
                </mxCell>
            </root>
        </mxGraphModel>
    </diagram>
    <diagram id="3V7VRgZHPbVrFUruvSrs" name="Page-2">
        <mxGraphModel dx="1066" dy="604" grid="1" gridSize="10" guides="1" tooltips="1" connect="1" arrows="1" fold="1" page="1" pageScale="1" pageWidth="850" pageHeight="1100" math="0" shadow="0">
            <root>
                <mxCell id="0"/>
                <mxCell id="1" parent="0"/>
                <mxCell id="stFcDSFNcrQjpdHN-M5M-1" value="&lt;h1 style=&quot;text-align: right;&quot;&gt;&lt;font color=&quot;#0d6fd9&quot;&gt;&lt;span style=&quot;font-size: 26px; background-color: initial;&quot;&gt;Functionalities&lt;/span&gt;&lt;br&gt;&lt;/font&gt;&lt;/h1&gt;&lt;p&gt;&lt;br&gt;&lt;/p&gt;" style="text;html=1;strokeColor=none;fillColor=none;spacing=5;spacingTop=-20;whiteSpace=wrap;overflow=hidden;rounded=0;" vertex="1" parent="1">
                    <mxGeometry x="350" y="20" width="210" height="40" as="geometry"/>
                </mxCell>
                <mxCell id="stFcDSFNcrQjpdHN-M5M-19" value="USERS" style="ellipse;html=1;fontSize=26;fontColor=#0d6fd9;" vertex="1" parent="1">
                    <mxGeometry x="30" y="250" width="120" height="80" as="geometry"/>
                </mxCell>
                <mxCell id="stFcDSFNcrQjpdHN-M5M-20" value="" style="endArrow=open;html=1;rounded=0;align=center;verticalAlign=top;endFill=0;labelBackgroundColor=none;endSize=6;fontSize=26;fontColor=#0d6fd9;" edge="1" source="stFcDSFNcrQjpdHN-M5M-19" parent="1" target="stFcDSFNcrQjpdHN-M5M-25">
                    <mxGeometry relative="1" as="geometry">
                        <mxPoint x="270" y="230" as="targetPoint"/>
                        <Array as="points"/>
                    </mxGeometry>
                </mxCell>
                <mxCell id="stFcDSFNcrQjpdHN-M5M-24" value="" style="endArrow=open;html=1;rounded=0;align=center;verticalAlign=top;endFill=0;labelBackgroundColor=none;endSize=6;fontSize=26;fontColor=#0d6fd9;" edge="1" parent="1">
                    <mxGeometry relative="1" as="geometry">
                        <mxPoint x="280" y="310" as="targetPoint"/>
                        <mxPoint x="139.9961811720979" y="314.0663818827902" as="sourcePoint"/>
                        <Array as="points"/>
                    </mxGeometry>
                </mxCell>
                <mxCell id="stFcDSFNcrQjpdHN-M5M-25" value="&lt;font style=&quot;font-size: 20px;&quot;&gt;CRUD&lt;/font&gt;" style="ellipse;whiteSpace=wrap;html=1;fontSize=26;fontColor=#0d6fd9;" vertex="1" parent="1">
                    <mxGeometry x="300" y="140" width="120" height="80" as="geometry"/>
                </mxCell>
                <mxCell id="qJRddgfKvdtahY6jvpT3-11" value="" style="edgeStyle=none;html=1;fontSize=20;fontColor=#0d6fd9;" edge="1" parent="1" source="stFcDSFNcrQjpdHN-M5M-26">
                    <mxGeometry relative="1" as="geometry">
                        <mxPoint x="590" y="200" as="targetPoint"/>
                        <Array as="points">
                            <mxPoint x="590" y="310"/>
                        </Array>
                    </mxGeometry>
                </mxCell>
                <mxCell id="stFcDSFNcrQjpdHN-M5M-26" value="&lt;font style=&quot;font-size: 20px;&quot;&gt;RECEIVE ALERTS&lt;/font&gt;" style="ellipse;whiteSpace=wrap;html=1;fontSize=26;fontColor=#0d6fd9;" vertex="1" parent="1">
                    <mxGeometry x="285" y="250" width="150" height="110" as="geometry"/>
                </mxCell>
                <mxCell id="stFcDSFNcrQjpdHN-M5M-27" value="&lt;font style=&quot;font-size: 20px;&quot;&gt;AUTHENTICATION&lt;/font&gt;" style="ellipse;whiteSpace=wrap;html=1;fontSize=26;fontColor=#0d6fd9;" vertex="1" parent="1">
                    <mxGeometry x="250" y="420" width="210" height="110" as="geometry"/>
                </mxCell>
                <mxCell id="stFcDSFNcrQjpdHN-M5M-28" value="" style="endArrow=open;html=1;rounded=0;align=center;verticalAlign=top;endFill=0;labelBackgroundColor=none;endSize=6;fontSize=26;fontColor=#0d6fd9;" edge="1" parent="1" source="stFcDSFNcrQjpdHN-M5M-19">
                    <mxGeometry relative="1" as="geometry">
                        <mxPoint x="250" y="450" as="targetPoint"/>
                        <mxPoint x="140" y="340" as="sourcePoint"/>
                        <Array as="points">
                            <mxPoint x="220" y="420"/>
                        </Array>
                    </mxGeometry>
                </mxCell>
                <mxCell id="stFcDSFNcrQjpdHN-M5M-29" value="&lt;font style=&quot;font-size: 20px;&quot;&gt;LOGIN&lt;/font&gt;" style="ellipse;whiteSpace=wrap;html=1;fontSize=26;fontColor=#0d6fd9;" vertex="1" parent="1">
                    <mxGeometry x="490" y="390" width="150" height="60" as="geometry"/>
                </mxCell>
                <mxCell id="stFcDSFNcrQjpdHN-M5M-30" value="&lt;font style=&quot;font-size: 20px;&quot;&gt;REGISTER&lt;/font&gt;" style="ellipse;whiteSpace=wrap;html=1;fontSize=26;fontColor=#0d6fd9;" vertex="1" parent="1">
                    <mxGeometry x="500" y="500" width="150" height="65" as="geometry"/>
                </mxCell>
                <mxCell id="stFcDSFNcrQjpdHN-M5M-31" value="" style="endArrow=open;html=1;rounded=0;align=center;verticalAlign=top;endFill=0;labelBackgroundColor=none;endSize=6;fontSize=26;fontColor=#0d6fd9;entryX=0.066;entryY=0.778;entryDx=0;entryDy=0;entryPerimeter=0;" edge="1" parent="1" target="stFcDSFNcrQjpdHN-M5M-29">
                    <mxGeometry relative="1" as="geometry">
                        <mxPoint x="510" y="430" as="targetPoint"/>
                        <mxPoint x="450" y="460" as="sourcePoint"/>
                        <Array as="points"/>
                    </mxGeometry>
                </mxCell>
                <mxCell id="stFcDSFNcrQjpdHN-M5M-32" value="" style="endArrow=open;html=1;rounded=0;align=center;verticalAlign=top;endFill=0;labelBackgroundColor=none;endSize=6;fontSize=26;fontColor=#0d6fd9;exitX=1;exitY=1;exitDx=0;exitDy=0;" edge="1" parent="1" source="stFcDSFNcrQjpdHN-M5M-27">
                    <mxGeometry relative="1" as="geometry">
                        <mxPoint x="490" y="530" as="targetPoint"/>
                        <mxPoint x="440" y="547.5" as="sourcePoint"/>
                        <Array as="points"/>
                    </mxGeometry>
                </mxCell>
                <mxCell id="GSnfzq3_GqghZYLYEURS-1" style="edgeStyle=none;html=1;exitX=0;exitY=0.5;exitDx=0;exitDy=0;entryX=1;entryY=0.5;entryDx=0;entryDy=0;fontSize=20;fontColor=#0d6fd9;" edge="1" parent="1" source="stFcDSFNcrQjpdHN-M5M-33" target="stFcDSFNcrQjpdHN-M5M-30">
                    <mxGeometry relative="1" as="geometry"/>
                </mxCell>
                <mxCell id="stFcDSFNcrQjpdHN-M5M-33" value="NAME&lt;br&gt;AGE&lt;br&gt;EMAIL&lt;br&gt;RELATIVE TIE&lt;br&gt;PASSWORD&lt;br&gt;BRACELET_ID" style="whiteSpace=wrap;html=1;aspect=fixed;fontSize=20;fontColor=#0d6fd9;" vertex="1" parent="1">
                    <mxGeometry x="680" y="457.5" width="172.5" height="172.5" as="geometry"/>
                </mxCell>
                <mxCell id="qJRddgfKvdtahY6jvpT3-3" style="edgeStyle=none;html=1;exitX=0;exitY=0.5;exitDx=0;exitDy=0;fontSize=20;fontColor=#0d6fd9;" edge="1" parent="1" source="qJRddgfKvdtahY6jvpT3-1">
                    <mxGeometry relative="1" as="geometry">
                        <mxPoint x="650" y="410" as="targetPoint"/>
                    </mxGeometry>
                </mxCell>
                <mxCell id="qJRddgfKvdtahY6jvpT3-1" value="EMAIL&lt;br&gt;PASSWORD" style="whiteSpace=wrap;html=1;aspect=fixed;fontSize=20;fontColor=#0d6fd9;" vertex="1" parent="1">
                    <mxGeometry x="690" y="320" width="120" height="120" as="geometry"/>
                </mxCell>
                <mxCell id="qJRddgfKvdtahY6jvpT3-13" value="Risk health states" style="whiteSpace=wrap;html=1;fontSize=26;fillColor=rgb(24, 20, 29);fontColor=#0d6fd9;" vertex="1" parent="1">
                    <mxGeometry x="460" y="110" width="260" height="85" as="geometry"/>
                </mxCell>
            </root>
        </mxGraphModel>
    </diagram>
    <diagram id="3TfO2tMbAIp185yg4B_M" name="Page-3">
        <mxGraphModel dx="1066" dy="604" grid="1" gridSize="10" guides="1" tooltips="1" connect="1" arrows="1" fold="1" page="1" pageScale="1" pageWidth="850" pageHeight="1100" math="0" shadow="0">
            <root>
                <mxCell id="0"/>
                <mxCell id="1" parent="0"/>
                <mxCell id="khdmr5ufhs8OZNvYtZ3u-6" value="&lt;h1&gt;Elderly Health Management System&lt;/h1&gt;&lt;p&gt;&lt;br&gt;&lt;/p&gt;" style="text;html=1;strokeColor=none;fillColor=none;spacing=5;spacingTop=-20;whiteSpace=wrap;overflow=hidden;rounded=0;fontSize=20;fontColor=#0d6fd9;" vertex="1" parent="1">
                    <mxGeometry x="70" y="40" width="740" height="90" as="geometry"/>
                </mxCell>
                <mxCell id="khdmr5ufhs8OZNvYtZ3u-7" value="&lt;ol&gt;&lt;li&gt;User Profile&lt;/li&gt;&lt;li&gt;Elderly Profile&lt;/li&gt;&lt;li&gt;Vitals Signs Monitoring(Bracelet)&lt;/li&gt;&lt;li&gt;Dashboard&lt;/li&gt;&lt;li&gt;Alerts and Notifications&lt;/li&gt;&lt;li&gt;Historical Data&lt;/li&gt;&lt;/ol&gt;" style="text;html=1;strokeColor=none;fillColor=none;align=left;verticalAlign=middle;whiteSpace=wrap;rounded=0;fontSize=20;fontColor=#0d6fd9;" vertex="1" parent="1">
                    <mxGeometry x="80" y="130" width="810" height="220" as="geometry"/>
                </mxCell>
                <mxCell id="khdmr5ufhs8OZNvYtZ3u-8" value="&lt;ol&gt;&lt;li&gt;&lt;span style=&quot;background-color: initial;&quot;&gt;User Profile&amp;nbsp;&lt;/span&gt;&lt;/li&gt;&lt;/ol&gt;&lt;ul&gt;&lt;li&gt;Create profile (name,email, photo, bracelet_id, description)&lt;/li&gt;&lt;li&gt;update profile&lt;/li&gt;&lt;li&gt;delete profile&lt;/li&gt;&lt;li&gt;show profile&lt;/li&gt;&lt;/ul&gt;" style="text;html=1;strokeColor=none;fillColor=none;align=left;verticalAlign=middle;whiteSpace=wrap;rounded=0;fontSize=20;fontColor=#0d6fd9;" vertex="1" parent="1">
                    <mxGeometry x="30" y="340" width="810" height="220" as="geometry"/>
                </mxCell>
                <mxCell id="khdmr5ufhs8OZNvYtZ3u-9" value="&lt;ol&gt;&lt;li&gt;&lt;span style=&quot;background-color: initial;&quot;&gt;Elderly Profile&amp;nbsp;&lt;/span&gt;&lt;/li&gt;&lt;/ol&gt;&lt;ul&gt;&lt;li&gt;Create profile (name, age, height,weight, photo, description)&lt;/li&gt;&lt;li&gt;update profile&lt;/li&gt;&lt;li&gt;delete profile&lt;/li&gt;&lt;li&gt;show profile&lt;/li&gt;&lt;/ul&gt;" style="text;html=1;strokeColor=none;fillColor=none;align=left;verticalAlign=middle;whiteSpace=wrap;rounded=0;fontSize=20;fontColor=#0d6fd9;" vertex="1" parent="1">
                    <mxGeometry x="40" y="560" width="810" height="220" as="geometry"/>
                </mxCell>
            </root>
        </mxGraphModel>
    </diagram>
</mxfile>